<svg width="118" height="12" viewBox="0 0 118 12" fill="none" xmlns="http://www.w3.org/2000/svg">
<path d="M0.912 6.072C1.064 6.192 1.324 6.356 1.692 6.564C2.068 6.772 2.424 6.876 2.76 6.876C3.104 6.876 3.276 6.744 3.276 6.48C3.276 6.36 3.228 6.256 3.132 6.168C3.036 6.072 2.86 5.964 2.604 5.844C2.348 5.724 2.156 5.632 2.028 5.568C1.9 5.496 1.728 5.384 1.512 5.232C1.304 5.072 1.144 4.908 1.032 4.74C0.712 4.284 0.552 3.704 0.552 3C0.552 2.296 0.812 1.704 1.332 1.224C1.86 0.736 2.548 0.491999 3.396 0.491999C3.972 0.491999 4.504 0.556 4.992 0.684C5.48 0.804 5.732 0.964 5.748 1.164C5.748 1.188 5.748 1.212 5.748 1.236C5.748 1.516 5.66 1.872 5.484 2.304C5.308 2.728 5.184 2.964 5.112 3.012C4.6 2.748 4.14 2.616 3.732 2.616C3.332 2.616 3.132 2.76 3.132 3.048C3.132 3.224 3.28 3.38 3.576 3.516C3.64 3.548 3.732 3.592 3.852 3.648C3.972 3.704 4.108 3.772 4.26 3.852C4.42 3.924 4.588 4.02 4.764 4.14C4.948 4.252 5.144 4.404 5.352 4.596C5.776 4.996 5.988 5.524 5.988 6.18C5.988 7.036 5.752 7.736 5.28 8.28C4.808 8.824 4.08 9.104 3.096 9.12C2.616 9.12 2.18 9.08 1.788 9C1.404 8.92 1.068 8.764 0.78 8.532C0.492 8.3 0.348 8.02 0.348 7.692C0.348 7.364 0.408 7.04 0.528 6.72C0.648 6.392 0.776 6.176 0.912 6.072ZM6.855 3.072C6.855 2.984 7.199 2.94 7.887 2.94C8.575 2.94 8.919 2.984 8.919 3.072V6.576C8.919 6.976 9.047 7.176 9.303 7.176C9.495 7.176 9.711 7.092 9.951 6.924V3.072C9.951 2.992 10.291 2.952 10.971 2.952C11.651 2.952 11.991 2.992 11.991 3.072V7.008H12.303C12.575 7.008 12.711 7.268 12.711 7.788C12.711 8.052 12.655 8.32 12.543 8.592C12.383 8.944 12.167 9.12 11.895 9.12C11.359 9.12 10.963 8.9 10.707 8.46L10.695 8.472C10.207 8.904 9.683 9.12 9.123 9.12C8.347 9.12 7.775 8.928 7.407 8.544C7.039 8.152 6.855 7.508 6.855 6.612V3.072ZM16.0223 11.184C16.0223 11.24 15.6783 11.268 14.9903 11.268C14.3103 11.268 13.9703 11.24 13.9703 11.184V5.004H13.5623C13.3703 5.004 13.2383 4.828 13.1663 4.476C13.1423 4.364 13.1303 4.22 13.1303 4.044C13.1303 3.868 13.1863 3.66 13.2983 3.42C13.4583 3.068 13.7143 2.892 14.0663 2.892C14.2983 2.892 14.5103 2.948 14.7023 3.06C14.9023 3.164 15.0383 3.264 15.1103 3.36C15.1903 3.448 15.2303 3.5 15.2303 3.516C15.7663 3.1 16.3463 2.892 16.9703 2.892C17.5943 2.892 18.1303 3.136 18.5783 3.624C19.0263 4.104 19.2503 4.852 19.2503 5.868C19.2503 6.876 19.0263 7.66 18.5783 8.22C18.1303 8.772 17.5623 9.048 16.8743 9.048C16.5623 9.048 16.2783 9.032 16.0223 9V11.184ZM16.5143 4.992C16.3783 4.992 16.2463 5.036 16.1183 5.124V7.248C16.2543 7.264 16.3623 7.272 16.4423 7.272C16.5303 7.272 16.5983 7.272 16.6463 7.272C16.9743 7.24 17.1383 6.82 17.1383 6.012C17.1383 5.332 16.9303 4.992 16.5143 4.992ZM24.6346 8.676C24.1306 8.972 23.4826 9.12 22.6906 9.12C21.8986 9.12 21.2306 8.852 20.6866 8.316C20.1426 7.772 19.8706 7.024 19.8706 6.072C19.8706 5.112 20.1306 4.34 20.6506 3.756C21.1786 3.172 21.8426 2.88 22.6426 2.88C23.4426 2.88 24.0586 3.084 24.4906 3.492C24.9306 3.9 25.1506 4.396 25.1506 4.98C25.1506 6.276 24.4066 6.924 22.9186 6.924H22.0906C22.0906 7.164 22.1546 7.332 22.2826 7.428C22.4186 7.516 22.6146 7.56 22.8706 7.56C23.4306 7.56 23.9626 7.432 24.4666 7.176C24.4746 7.168 24.5106 7.224 24.5746 7.344C24.7666 7.688 24.8626 7.98 24.8626 8.22C24.8626 8.452 24.7866 8.604 24.6346 8.676ZM23.1346 5.208C23.1346 4.872 22.9706 4.704 22.6426 4.704C22.4906 4.704 22.3586 4.752 22.2466 4.848C22.1426 4.936 22.0906 5.068 22.0906 5.244V5.616H22.7386C23.0026 5.616 23.1346 5.48 23.1346 5.208ZM28.5625 8.988C28.5625 9.044 28.1985 9.072 27.4705 9.072C26.7425 9.056 26.3785 9.024 26.3785 8.976V4.992H26.0545C25.9265 4.992 25.8225 4.916 25.7425 4.764C25.6705 4.604 25.6345 4.408 25.6345 4.176C25.6345 3.312 25.8905 2.88 26.4025 2.88C26.7625 2.88 27.0625 2.992 27.3025 3.216C27.5425 3.432 27.6625 3.68 27.6625 3.96C27.8305 3.632 28.0545 3.372 28.3345 3.18C28.6225 2.98 28.9145 2.88 29.2105 2.88C29.6745 2.88 29.9545 3 30.0505 3.24C30.0745 3.304 30.0865 3.4 30.0865 3.528C30.0865 3.648 30.0465 3.868 29.9665 4.188C29.8945 4.508 29.8185 4.74 29.7385 4.884C29.6585 5.028 29.6105 5.1 29.5945 5.1C29.5785 5.1 29.5025 5.072 29.3665 5.016C29.2385 4.952 29.1225 4.92 29.0185 4.92C28.7145 4.92 28.5625 5.16 28.5625 5.64V8.988ZM36.1283 8.94C36.1283 8.996 35.7843 9.024 35.0963 9.024C34.4163 9.024 34.0763 8.988 34.0763 8.916V5.424C34.0763 5.024 33.9443 4.824 33.6803 4.824C33.5443 4.824 33.3643 4.912 33.1403 5.088V8.928C33.1403 9.008 32.7963 9.048 32.1083 9.048C31.4283 9.048 31.0883 9.004 31.0883 8.916V4.992H30.7883C30.5243 4.992 30.3923 4.716 30.3923 4.164C30.3923 3.916 30.4403 3.664 30.5363 3.408C30.6643 3.056 30.8723 2.88 31.1603 2.88C31.4483 2.88 31.7243 2.956 31.9883 3.108C32.2603 3.26 32.4243 3.404 32.4803 3.54C32.9763 3.1 33.5243 2.88 34.1243 2.88C34.7323 2.88 35.2203 3.068 35.5883 3.444C36.0203 3.068 36.5403 2.88 37.1483 2.88C38.4683 2.88 39.1283 3.684 39.1283 5.292V8.94C39.1283 8.996 38.7843 9.024 38.0963 9.024C37.4163 9.024 37.0763 8.988 37.0763 8.916V5.424C37.0763 5.024 36.9443 4.824 36.6803 4.824C36.5363 4.824 36.3523 4.912 36.1283 5.088V8.94ZM40.9054 4.644C40.6814 4.244 40.5694 3.92 40.5694 3.672C40.5694 3.416 40.6374 3.252 40.7734 3.18C41.2294 2.98 41.8534 2.88 42.6454 2.88C43.4454 2.88 44.0094 3.068 44.3374 3.444C44.6654 3.812 44.8294 4.36 44.8294 5.088V6.984H45.2374C45.3734 6.984 45.4774 7.064 45.5494 7.224C45.6294 7.384 45.6694 7.604 45.6694 7.884C45.6694 8.164 45.5974 8.44 45.4534 8.712C45.3174 8.984 45.1294 9.12 44.8894 9.12C44.4574 9.12 44.1094 9.004 43.8454 8.772C43.7254 8.676 43.6334 8.56 43.5694 8.424C43.2014 8.888 42.6294 9.12 41.8534 9.12C41.2694 9.12 40.7774 8.912 40.3774 8.496C39.9774 8.08 39.7774 7.588 39.7774 7.02C39.7774 5.716 40.5574 5.064 42.1174 5.064H42.7774V4.944C42.7774 4.736 42.7414 4.604 42.6694 4.548C42.6054 4.484 42.4494 4.452 42.2014 4.452C41.8974 4.452 41.4654 4.516 40.9054 4.644ZM41.8654 6.852C41.8654 7.028 41.9134 7.164 42.0094 7.26C42.1054 7.348 42.2254 7.392 42.3694 7.392C42.5214 7.392 42.6574 7.332 42.7774 7.212V6.288H42.4414C42.0574 6.288 41.8654 6.476 41.8654 6.852ZM48.9766 8.988C48.9766 9.044 48.6126 9.072 47.8846 9.072C47.1566 9.056 46.7926 9.024 46.7926 8.976V4.992H46.4686C46.3406 4.992 46.2366 4.916 46.1566 4.764C46.0846 4.604 46.0486 4.408 46.0486 4.176C46.0486 3.312 46.3046 2.88 46.8166 2.88C47.1766 2.88 47.4766 2.992 47.7166 3.216C47.9566 3.432 48.0766 3.68 48.0766 3.96C48.2446 3.632 48.4686 3.372 48.7486 3.18C49.0366 2.98 49.3286 2.88 49.6246 2.88C50.0886 2.88 50.3686 3 50.4646 3.24C50.4886 3.304 50.5006 3.4 50.5006 3.528C50.5006 3.648 50.4606 3.868 50.3806 4.188C50.3086 4.508 50.2326 4.74 50.1526 4.884C50.0726 5.028 50.0246 5.1 50.0086 5.1C49.9926 5.1 49.9166 5.072 49.7806 5.016C49.6526 4.952 49.5366 4.92 49.4326 4.92C49.1286 4.92 48.9766 5.16 48.9766 5.64V8.988ZM51.1064 0.696C51.1064 0.568 51.4704 0.504 52.1984 0.504C52.8784 0.528 53.2184 0.579999 53.2184 0.659999V5.268L54.4064 3.072C54.4624 2.952 54.8024 2.892 55.4264 2.892C56.0504 2.892 56.4504 2.932 56.6264 3.012L55.0664 5.556L56.8664 8.928C56.8824 8.96 56.7304 8.984 56.4104 9C56.0984 9.024 55.8384 9.036 55.6304 9.036C54.8624 9.036 54.4504 9 54.3944 8.928L53.2064 6.264V8.916C53.2064 9.02 52.8544 9.072 52.1504 9.072C51.4544 9.072 51.1064 9.024 51.1064 8.928V0.696ZM61.7127 8.676C61.2087 8.972 60.5607 9.12 59.7687 9.12C58.9767 9.12 58.3087 8.852 57.7647 8.316C57.2207 7.772 56.9487 7.024 56.9487 6.072C56.9487 5.112 57.2087 4.34 57.7287 3.756C58.2567 3.172 58.9207 2.88 59.7207 2.88C60.5207 2.88 61.1367 3.084 61.5687 3.492C62.0087 3.9 62.2287 4.396 62.2287 4.98C62.2287 6.276 61.4847 6.924 59.9967 6.924H59.1687C59.1687 7.164 59.2327 7.332 59.3607 7.428C59.4967 7.516 59.6927 7.56 59.9487 7.56C60.5087 7.56 61.0407 7.432 61.5447 7.176C61.5527 7.168 61.5887 7.224 61.6527 7.344C61.8447 7.688 61.9407 7.98 61.9407 8.22C61.9407 8.452 61.8647 8.604 61.7127 8.676ZM60.2127 5.208C60.2127 4.872 60.0487 4.704 59.7207 4.704C59.5687 4.704 59.4367 4.752 59.3247 4.848C59.2207 4.936 59.1687 5.068 59.1687 5.244V5.616H59.8167C60.0807 5.616 60.2127 5.48 60.2127 5.208ZM65.7727 8.928C65.7727 9.024 65.4367 9.072 64.7647 9.072C63.9647 9.04 63.5647 8.988 63.5647 8.916V4.668H62.9527C62.7927 4.668 62.7127 4.392 62.7127 3.84C62.7127 3.696 62.7247 3.52 62.7487 3.312C62.7807 3.104 62.8407 3 62.9287 3H63.5647V1.944C63.5647 1.784 63.9007 1.704 64.5727 1.704C65.2527 1.704 65.5927 1.768 65.5927 1.896V2.664L65.6047 3H66.6247C66.7607 3 66.8287 3.28 66.8287 3.84C66.8287 4.4 66.7607 4.68 66.6247 4.68H65.7727V8.928Z" fill="#F2502C"/>
<path d="M73.6763 0.84C73.6763 0.68 74.1083 0.599999 74.9723 0.599999C75.8443 0.599999 76.2803 0.68 76.2803 0.84V6.348C76.2803 7.164 75.9883 7.832 75.4043 8.352C74.8203 8.864 74.0123 9.12 72.9803 9.12C71.9563 9.12 71.1203 8.856 70.4723 8.328C69.8323 7.792 69.5123 7.072 69.5123 6.168V0.852C69.5123 0.691999 69.9443 0.611999 70.8083 0.611999C71.6803 0.611999 72.1163 0.691999 72.1163 0.852V6.264C72.1163 6.424 72.2003 6.552 72.3683 6.648C72.5443 6.744 72.7283 6.792 72.9203 6.792C73.1123 6.792 73.2843 6.748 73.4363 6.66C73.5963 6.572 73.6763 6.44 73.6763 6.264V0.84ZM79.7355 8.928C79.7355 8.984 79.4475 9.012 78.8715 9.012C78.0715 8.988 77.6715 8.944 77.6715 8.88V4.992H77.3595C77.1515 4.992 77.0155 4.816 76.9515 4.464C76.9355 4.36 76.9275 4.256 76.9275 4.152C76.9275 3.904 76.9755 3.656 77.0715 3.408C77.2155 3.056 77.4395 2.88 77.7435 2.88C78.0475 2.88 78.3195 2.952 78.5595 3.096C78.7995 3.24 78.9595 3.384 79.0395 3.528C79.5435 3.096 80.1435 2.88 80.8395 2.88C81.5355 2.88 82.0395 3.068 82.3515 3.444C82.6635 3.82 82.8195 4.436 82.8195 5.292V8.892C82.8195 8.988 82.4755 9.036 81.7875 9.036C81.1075 9.036 80.7675 8.988 80.7675 8.892V5.424C80.7675 5.024 80.6275 4.824 80.3475 4.824C80.2675 4.824 80.1555 4.86 80.0115 4.932C79.8675 4.996 79.7755 5.044 79.7355 5.076V8.928ZM86.0329 8.928C86.0329 8.992 85.6649 9.024 84.9289 9.024C84.2009 9.024 83.8369 8.996 83.8369 8.94V3.048C83.8369 2.992 84.2009 2.964 84.9289 2.964C85.6649 2.964 86.0329 2.988 86.0329 3.036V8.928ZM86.0329 2.328C86.0329 2.384 85.6649 2.412 84.9289 2.412C84.2009 2.412 83.8369 2.388 83.8369 2.34V0.611999C83.8369 0.531999 84.2009 0.491999 84.9289 0.491999C85.6649 0.491999 86.0329 0.516 86.0329 0.564V2.328ZM91.6661 0.599999C91.8021 0.599999 91.8701 0.956 91.8701 1.668C91.8701 2.372 91.8021 2.724 91.6661 2.724H89.4701V4.092H90.9341C91.0701 4.092 91.1381 4.404 91.1381 5.028C91.1381 5.644 91.0741 5.952 90.9461 5.952H89.4701V8.844C89.4701 8.956 89.3181 9.028 89.0141 9.06C88.7181 9.1 88.4701 9.12 88.2701 9.12L87.7061 9.096C87.3141 9.048 87.1181 8.968 87.1181 8.856V0.912C87.1181 0.783999 87.1421 0.699999 87.1901 0.659999C87.2461 0.619999 87.3261 0.599999 87.4301 0.599999H91.6661ZM93.1124 4.644C92.8884 4.244 92.7764 3.92 92.7764 3.672C92.7764 3.416 92.8444 3.252 92.9804 3.18C93.4364 2.98 94.0604 2.88 94.8524 2.88C95.6524 2.88 96.2164 3.068 96.5444 3.444C96.8724 3.812 97.0364 4.36 97.0364 5.088V6.984H97.4444C97.5804 6.984 97.6844 7.064 97.7564 7.224C97.8364 7.384 97.8764 7.604 97.8764 7.884C97.8764 8.164 97.8044 8.44 97.6604 8.712C97.5244 8.984 97.3364 9.12 97.0964 9.12C96.6644 9.12 96.3164 9.004 96.0524 8.772C95.9324 8.676 95.8404 8.56 95.7764 8.424C95.4084 8.888 94.8364 9.12 94.0604 9.12C93.4764 9.12 92.9844 8.912 92.5844 8.496C92.1844 8.08 91.9844 7.588 91.9844 7.02C91.9844 5.716 92.7644 5.064 94.3244 5.064H94.9844V4.944C94.9844 4.736 94.9484 4.604 94.8764 4.548C94.8124 4.484 94.6564 4.452 94.4084 4.452C94.1044 4.452 93.6724 4.516 93.1124 4.644ZM94.0724 6.852C94.0724 7.028 94.1204 7.164 94.2164 7.26C94.3124 7.348 94.4324 7.392 94.5764 7.392C94.7284 7.392 94.8644 7.332 94.9844 7.212V6.288H94.6484C94.2644 6.288 94.0724 6.476 94.0724 6.852ZM100.524 6.024C100.524 6.808 100.82 7.2 101.412 7.2C101.796 7.2 102.116 7.124 102.372 6.972C102.492 6.972 102.588 7.18 102.66 7.596C102.74 8.004 102.78 8.284 102.78 8.436C102.78 8.58 102.76 8.676 102.72 8.724C102.296 8.988 101.716 9.12 100.98 9.12C100.244 9.12 99.6156 8.848 99.0956 8.304C98.5836 7.752 98.3276 7.004 98.3276 6.06C98.3276 5.108 98.5796 4.34 99.0836 3.756C99.5956 3.172 100.272 2.88 101.112 2.88C101.96 2.88 102.548 3.084 102.876 3.492C102.948 3.58 102.984 3.712 102.984 3.888C102.984 4.056 102.952 4.264 102.888 4.512C102.744 5.024 102.556 5.32 102.324 5.4C102.292 5.408 102.244 5.412 102.18 5.412C102.124 5.412 102.052 5.364 101.964 5.268C101.652 4.956 101.4 4.8 101.208 4.8C101.024 4.8 100.864 4.896 100.728 5.088C100.592 5.28 100.524 5.592 100.524 6.024ZM105.838 8.928C105.838 8.992 105.47 9.024 104.734 9.024C104.006 9.024 103.642 8.996 103.642 8.94V3.048C103.642 2.992 104.006 2.964 104.734 2.964C105.47 2.964 105.838 2.988 105.838 3.036V8.928ZM105.838 2.328C105.838 2.384 105.47 2.412 104.734 2.412C104.006 2.412 103.642 2.388 103.642 2.34V0.611999C103.642 0.531999 104.006 0.491999 104.734 0.491999C105.47 0.491999 105.838 0.516 105.838 0.564V2.328ZM107.175 6.84C107.823 7.232 108.335 7.428 108.711 7.428C108.951 7.428 109.071 7.344 109.071 7.176C109.071 7.056 108.863 6.9 108.447 6.708C107.447 6.3 106.947 5.632 106.947 4.704C106.947 4.112 107.163 3.66 107.595 3.348C108.027 3.036 108.543 2.88 109.143 2.88C109.751 2.88 110.263 2.944 110.679 3.072C111.103 3.2 111.315 3.368 111.315 3.576C111.315 3.752 111.227 3.984 111.051 4.272C110.883 4.56 110.767 4.716 110.703 4.74C110.359 4.548 109.987 4.452 109.587 4.452C109.371 4.452 109.263 4.528 109.263 4.68C109.263 4.776 109.303 4.86 109.383 4.932C109.471 4.996 109.627 5.08 109.851 5.184C110.075 5.28 110.259 5.368 110.403 5.448C110.555 5.528 110.723 5.64 110.907 5.784C111.291 6.088 111.483 6.484 111.483 6.972C111.483 7.612 111.271 8.132 110.847 8.532C110.423 8.924 109.783 9.12 108.927 9.12C108.359 9.12 107.843 9.024 107.379 8.832C106.915 8.64 106.683 8.376 106.683 8.04C106.683 7.816 106.735 7.58 106.839 7.332C106.951 7.084 107.063 6.92 107.175 6.84ZM113.081 4.644C112.857 4.244 112.745 3.92 112.745 3.672C112.745 3.416 112.813 3.252 112.949 3.18C113.405 2.98 114.029 2.88 114.821 2.88C115.621 2.88 116.185 3.068 116.513 3.444C116.841 3.812 117.005 4.36 117.005 5.088V6.984H117.413C117.549 6.984 117.653 7.064 117.725 7.224C117.805 7.384 117.845 7.604 117.845 7.884C117.845 8.164 117.773 8.44 117.629 8.712C117.493 8.984 117.305 9.12 117.065 9.12C116.633 9.12 116.285 9.004 116.021 8.772C115.901 8.676 115.809 8.56 115.745 8.424C115.377 8.888 114.805 9.12 114.029 9.12C113.445 9.12 112.953 8.912 112.553 8.496C112.153 8.08 111.953 7.588 111.953 7.02C111.953 5.716 112.733 5.064 114.293 5.064H114.953V4.944C114.953 4.736 114.917 4.604 114.845 4.548C114.781 4.484 114.625 4.452 114.377 4.452C114.073 4.452 113.641 4.516 113.081 4.644ZM114.041 6.852C114.041 7.028 114.089 7.164 114.185 7.26C114.281 7.348 114.401 7.392 114.545 7.392C114.697 7.392 114.833 7.332 114.953 7.212V6.288H114.617C114.233 6.288 114.041 6.476 114.041 6.852Z" fill="#00398E"/>
</svg>
